<?xml version="1.0" standalone="no"?>
<!DOCTYPE svg PUBLIC "-//W3C//DTD SVG 20010904//EN"
 "http://www.w3.org/TR/2001/REC-SVG-20010904/DTD/svg10.dtd">
<svg version="1.0" xmlns="http://www.w3.org/2000/svg"
 width="158.000000pt" height="158.000000pt" viewBox="0 0 158.000000 158.000000"
 preserveAspectRatio="xMidYMid meet">
<metadata>
Created by potrace 1.11, written by Peter Selinger 2001-2013
</metadata>
<g transform="translate(0.000000,158.000000) scale(0.100000,-0.100000)"
fill="#000000" stroke="none">
<path d="M14 1565 c-3 -6 -3 -87 -2 -180 l3 -170 168 0 c93 0 173 2 178 6 6 3
8 77 7 180 l-3 174 -174 1 c-116 0 -174 -3 -177 -11z"/>
<path d="M479 1566 c-1 -6 -1 -82 -1 -168 l1 -157 -46 -38 c-25 -20 -50 -38
-57 -39 -9 -2 -136 -56 -324 -139 l-42 -19 -1 -85 c0 -47 -2 -139 -4 -203 l-3
-117 90 45 c50 25 91 44 93 42 2 -2 6 -30 10 -63 3 -33 10 -77 15 -99 8 -36 6
-40 -27 -70 -20 -17 -43 -36 -52 -43 -20 -15 -20 -15 68 -48 41 -15 80 -35 88
-44 8 -9 34 -42 59 -73 46 -59 159 -158 181 -158 6 0 13 -3 15 -7 5 -13 98
-53 158 -68 76 -20 274 -20 354 1 108 28 212 90 301 179 143 142 207 304 201
505 -2 52 -9 118 -16 145 -32 124 -118 267 -210 347 l-50 44 -2 169 -3 170
-163 0 c-90 0 -166 -2 -170 -5 -4 -3 -7 -50 -7 -105 l0 -99 -57 -1 -57 -1 -3
105 -3 106 -167 1 c-117 1 -168 -2 -169 -10z"/>
</g>
</svg>
